<svg width="25" height="24" viewBox="0 0 25 24" fill="none" xmlns="http://www.w3.org/2000/svg">
<g id="Icon">
<path id="Vector" d="M5 19.5008H6.1L17.175 8.42578L16.075 7.32578L5 18.4008V19.5008ZM20.35 7.35078L17.15 4.15078L18.2 3.10078C18.4833 2.81745 18.8333 2.67578 19.25 2.67578C19.6667 2.67578 20.0167 2.81745 20.3 3.10078L21.4 4.20078C21.6833 4.48411 21.825 4.83411 21.825 5.25078C21.825 5.66745 21.6833 6.01745 21.4 6.30078L20.35 7.35078ZM19.3 8.40078L6.7 21.0008H3.5V17.8008L16.1 5.20078L19.3 8.40078ZM16.625 7.87578L16.075 7.32578L17.175 8.42578L16.625 7.87578Z" fill="black" fill-opacity="0.87"/>
</g>
</svg>
