<svg width="16" height="16" viewBox="0 0 16 16" fill="none" xmlns="http://www.w3.org/2000/svg">
<g id="excel-app" clip-path="url(#clip0_979_14401)">
<path id="Vector" d="M8.36784 0H9.44731V1.48837C11.2665 1.48837 13.0856 1.49209 14.9046 1.48272C15.2118 1.49567 15.5498 1.47349 15.8169 1.66132C16.004 1.93667 15.9823 2.28644 15.995 2.60272C15.986 5.83248 15.9896 9.06046 15.9915 12.2883C15.9825 12.8298 16.0405 13.3823 15.9297 13.9163C15.857 14.3033 15.4027 14.3125 15.0991 14.3256C13.2164 14.3311 11.3319 14.3219 9.44731 14.3256V16H8.3187C5.54913 15.4846 2.77403 15.0084 0.000976562 14.5116V1.49031C2.79061 0.993488 5.58009 0.50426 8.36784 0Z" fill="#207245"/>
<path id="Vector_2" d="M9.44727 2.04688H15.4444V13.7678H9.44727V12.6515H10.9011V11.3492H9.44727V10.605H10.9011V9.30269H9.44727V8.5585H10.9011V7.25618H9.44727V6.51199H10.9011V5.20967H9.44727V4.46548H10.9011V3.16315H9.44727V2.04688Z" fill="white"/>
<path id="Vector_3" d="M11.6279 3.16211H14.1722V4.46443H11.6279V3.16211Z" fill="#207245"/>
<path id="Vector_4" d="M5.38397 4.90628C5.79468 4.87652 6.20728 4.85047 6.61974 4.83008C6.13526 5.84867 5.64642 6.86509 5.15325 7.87931C5.65308 8.92117 6.16352 9.95559 6.6651 10.9974C6.22761 10.9717 5.79029 10.9432 5.35315 10.9119C5.04421 10.136 4.66796 9.38628 4.44624 8.57512C4.19924 9.33047 3.84653 10.043 3.56318 10.7836C3.16512 10.7779 2.76706 10.7612 2.36914 10.7444C2.83611 9.80868 3.28681 8.86535 3.76832 7.93512C3.3595 6.97691 2.91055 6.03745 2.48894 5.08489C2.88874 5.06063 3.28855 5.03652 3.68836 5.01419C3.95906 5.74171 4.25521 6.4597 4.47896 7.20582C4.71869 6.41519 5.07678 5.67101 5.38397 4.90628Z" fill="white"/>
<path id="Vector_5" d="M11.6279 5.20898H14.1722V6.51131H11.6279V5.20898ZM11.6279 7.2555H14.1722V8.55782H11.6279V7.2555ZM11.6279 9.30201H14.1722V10.6043H11.6279V9.30201ZM11.6279 11.3485H14.1722V12.6508H11.6279V11.3485Z" fill="#207245"/>
</g>
<defs>
<clipPath id="clip0_979_14401">
<rect width="16" height="16" fill="white"/>
</clipPath>
</defs>
</svg>
